<?xml version="1.0" encoding="utf-8"?>
<svg width="1024" height="1024" viewBox="0 0 1024 1024" fill="none" xmlns="http://www.w3.org/2000/svg">
  <g>
    <rect width="1024" height="1024" fill="#000000" fill-rule="evenodd" fill-opacity="0" />
    <g transform="translate(32 84)">
      <path d="M310.303 10.4213L7.84421 834.625Q7.67963 835.073 7.54227 835.531Q7.40492 835.988 7.29529 836.453Q7.18566 836.918 7.10414 837.389Q7.02262 837.859 6.96951 838.334Q6.9164 838.809 6.8919 839.286Q6.86739 839.763 6.87158 840.241Q6.87576 840.718 6.90862 841.195Q6.94148 841.672 7.00289 842.145Q7.06431 842.619 7.15405 843.088Q7.2438 843.558 7.36156 844.021Q7.47932 844.484 7.62467 844.939Q7.77001 845.394 7.94242 845.839Q8.11483 846.285 8.31367 846.719Q8.51252 847.153 8.73709 847.575Q8.96166 847.997 9.21114 848.404Q9.46062 848.812 9.73411 849.203Q10.0076 849.595 10.3041 849.97Q10.6006 850.344 10.9191 850.7Q11.2376 851.056 11.5768 851.393Q11.9161 851.729 12.275 852.044Q12.6338 852.359 13.011 852.653Q13.3881 852.946 13.7822 853.216Q14.1763 853.486 14.5858 853.732Q14.9954 853.978 15.419 854.199Q15.8426 854.42 16.2787 854.615Q16.7148 854.81 17.1618 854.978Q17.6088 855.147 18.0651 855.288Q18.5215 855.429 18.9855 855.543Q19.4494 855.657 19.9194 855.742Q20.3894 855.828 20.8637 855.885Q21.338 855.943 21.8148 855.971Q22.2917 856 22.7694 856L279.158 856Q279.466 856 279.773 855.988Q280.081 855.976 280.387 855.952Q280.694 855.929 280.999 855.893Q281.305 855.857 281.609 855.81Q281.913 855.763 282.214 855.704Q282.516 855.644 282.815 855.574Q283.115 855.503 283.411 855.421Q283.707 855.338 284 855.245Q284.293 855.151 284.582 855.046Q284.872 854.941 285.156 854.825Q285.441 854.709 285.721 854.582Q286.001 854.455 286.276 854.318Q286.551 854.18 286.821 854.032Q287.09 853.883 287.354 853.725Q287.617 853.566 287.875 853.398Q288.132 853.229 288.382 853.051Q288.633 852.872 288.876 852.684Q289.12 852.496 289.356 852.299Q289.592 852.102 289.82 851.896Q290.048 851.689 290.268 851.474Q290.488 851.259 290.699 851.036Q290.911 850.813 291.114 850.582Q291.316 850.35 291.51 850.111Q291.704 849.872 291.888 849.626Q292.072 849.38 292.247 849.127Q292.421 848.874 292.586 848.614Q292.751 848.354 292.905 848.088Q293.06 847.822 293.204 847.551Q293.348 847.279 293.481 847.002Q293.615 846.725 293.737 846.443Q293.86 846.161 293.972 845.874Q294.083 845.588 294.184 845.297L579.164 21.0938Q579.319 20.6467 579.447 20.1912Q579.574 19.7357 579.675 19.2735Q579.775 18.8112 579.848 18.3438Q579.921 17.8764 579.966 17.4055Q580.01 16.9346 580.027 16.4618Q580.044 15.9891 580.032 15.5162Q580.021 15.0433 579.982 14.5719Q579.942 14.1005 579.875 13.6323Q579.807 13.1641 579.712 12.7007Q579.617 12.2373 579.495 11.7804Q579.372 11.3235 579.223 10.8747Q579.073 10.4259 578.897 9.98679Q578.721 9.54767 578.52 9.11978Q578.318 8.69189 578.091 8.27675Q577.864 7.86161 577.613 7.46069Q577.362 7.05977 577.088 6.67448Q576.813 6.28919 576.516 5.9209Q576.22 5.55262 575.901 5.20263Q575.583 4.85265 575.245 4.5222Q574.906 4.19175 574.549 3.88202Q574.191 3.57228 573.816 3.28435Q573.44 2.99642 573.049 2.73132Q572.657 2.46621 572.25 2.22486Q571.843 1.98352 571.423 1.76679Q571.002 1.55006 570.57 1.35872Q570.137 1.16737 569.694 1.00209Q569.25 0.8368 568.798 0.698158Q568.346 0.559517 567.886 0.44801Q567.427 0.336504 566.961 0.252527Q566.495 0.16855 566.026 0.1124Q565.556 0.0562497 565.084 0.0281249Q564.612 0 564.139 0L325.228 0Q324.925 0 324.622 0.0115356Q324.32 0.0230711 324.018 0.0461255Q323.716 0.0691799 323.415 0.10372Q323.114 0.138259 322.815 0.184234Q322.515 0.230209 322.218 0.287553Q321.921 0.344896 321.626 0.413525Q321.331 0.482154 321.038 0.561969Q320.746 0.641783 320.457 0.732668Q320.168 0.823552 319.883 0.925375Q319.598 1.0272 319.317 1.13981Q319.036 1.25242 318.759 1.37566Q318.482 1.4989 318.21 1.63259Q317.939 1.76628 317.672 1.91022Q317.406 2.05416 317.145 2.20815Q316.884 2.36213 316.629 2.52594Q316.375 2.68975 316.126 2.86314Q315.878 3.03653 315.636 3.21926Q315.395 3.40198 315.16 3.59377Q314.926 3.78557 314.699 3.98615Q314.472 4.18673 314.253 4.39581Q314.034 4.60488 313.823 4.82216Q313.612 5.03943 313.409 5.26458Q313.207 5.48973 313.013 5.72244Q312.819 5.95514 312.634 6.19506Q312.449 6.43498 312.274 6.68176Q312.098 6.92855 311.932 7.18184Q311.766 7.43514 311.61 7.69457Q311.453 7.954 311.307 8.2192Q311.161 8.4844 311.025 8.75498Q310.889 9.02556 310.763 9.30112Q310.637 9.57669 310.522 9.85684Q310.407 10.137 310.303 10.4213L310.303 10.4213Z" fill="#6159E1" fill-rule="evenodd" />
      <path d="M139.58 10.7045L7.29086 393.416Q7.13633 393.863 7.00865 394.319Q6.88097 394.774 6.78059 395.236Q6.68021 395.699 6.6075 396.166Q6.53478 396.633 6.48998 397.104Q6.44517 397.575 6.42845 398.048Q6.41172 398.521 6.42313 398.994Q6.43454 399.466 6.47404 399.938Q6.51354 400.409 6.581 400.877Q6.64845 401.346 6.74362 401.809Q6.83879 402.272 6.96134 402.729Q7.08389 403.186 7.23339 403.635Q7.38288 404.084 7.55879 404.523Q7.7347 404.962 7.93641 405.39Q8.13811 405.817 8.3649 406.233Q8.59168 406.648 8.84275 407.049Q9.09381 407.449 9.36827 407.835Q9.64272 408.22 9.93959 408.588Q10.2365 408.956 10.5547 409.306Q10.8729 409.656 11.2114 409.987Q11.5499 410.317 11.9074 410.627Q12.265 410.937 12.6403 411.224Q13.0156 411.512 13.4074 411.777Q13.7991 412.043 14.2059 412.284Q14.6128 412.525 15.0332 412.742Q15.4537 412.959 15.8863 413.15Q16.3189 413.341 16.7621 413.507Q17.2053 413.672 17.6576 413.81Q18.1098 413.949 18.5695 414.061Q19.0292 414.172 19.4947 414.256Q19.9602 414.34 20.4299 414.396Q20.8995 414.452 21.3717 414.48Q21.8439 414.509 22.3169 414.509L255.766 414.509Q256.083 414.509 256.4 414.496Q256.716 414.483 257.032 414.458Q257.348 414.433 257.663 414.395Q257.978 414.357 258.291 414.307Q258.604 414.257 258.914 414.194Q259.225 414.131 259.533 414.056Q259.841 413.981 260.145 413.894Q260.45 413.806 260.751 413.707Q261.052 413.608 261.349 413.496Q261.646 413.385 261.938 413.262Q262.23 413.139 262.517 413.004Q262.804 412.87 263.085 412.724Q263.366 412.578 263.642 412.421Q263.917 412.264 264.186 412.096Q264.455 411.928 264.717 411.75Q264.979 411.571 265.233 411.383Q265.488 411.194 265.735 410.995Q265.982 410.796 266.22 410.588Q266.459 410.38 266.69 410.162Q266.92 409.944 267.141 409.717Q267.363 409.491 267.575 409.255Q267.787 409.02 267.99 408.776Q268.192 408.532 268.385 408.281Q268.578 408.029 268.761 407.77Q268.943 407.511 269.115 407.245Q269.288 406.979 269.449 406.706Q269.61 406.433 269.761 406.154Q269.911 405.875 270.05 405.591Q270.189 405.306 270.317 405.016Q270.445 404.726 270.561 404.431Q270.677 404.136 270.781 403.836Q270.885 403.537 270.977 403.234L327.188 218.302Q327.28 217.998 327.385 217.699Q327.489 217.4 327.605 217.105Q327.721 216.81 327.849 216.52Q327.976 216.23 328.115 215.945Q328.255 215.66 328.405 215.381Q328.555 215.102 328.717 214.829Q328.878 214.556 329.05 214.29Q329.222 214.024 329.405 213.765Q329.588 213.506 329.78 213.255Q329.973 213.003 330.176 212.759Q330.379 212.516 330.591 212.28Q330.803 212.045 331.024 211.818Q331.246 211.591 331.476 211.373Q331.706 211.156 331.945 210.947Q332.184 210.739 332.431 210.54Q332.678 210.341 332.932 210.153Q333.187 209.964 333.449 209.786Q333.711 209.607 333.98 209.439Q334.249 209.271 334.524 209.114Q334.799 208.957 335.081 208.811Q335.362 208.666 335.649 208.531Q335.936 208.396 336.228 208.273Q336.52 208.15 336.817 208.039Q337.114 207.928 337.415 207.828Q337.716 207.729 338.02 207.642Q338.325 207.554 338.633 207.479Q338.941 207.404 339.251 207.341Q339.562 207.279 339.875 207.228Q340.188 207.178 340.503 207.14Q340.817 207.102 341.133 207.077Q341.449 207.052 341.766 207.039Q342.083 207.027 342.4 207.027L471.379 207.027Q471.697 207.027 472.016 207.014Q472.334 207.001 472.652 206.976Q472.969 206.95 473.285 206.912Q473.602 206.874 473.916 206.823Q474.23 206.772 474.543 206.709Q474.855 206.645 475.164 206.569Q475.474 206.494 475.78 206.405Q476.086 206.317 476.388 206.217Q476.69 206.116 476.988 206.004Q477.286 205.892 477.58 205.767Q477.873 205.643 478.161 205.507Q478.449 205.371 478.732 205.224Q479.014 205.077 479.29 204.918Q479.567 204.76 479.836 204.59Q480.106 204.421 480.369 204.241Q480.632 204.061 480.887 203.87Q481.142 203.68 481.39 203.479Q481.637 203.279 481.876 203.068Q482.116 202.858 482.346 202.638Q482.577 202.418 482.798 202.19Q483.02 201.961 483.232 201.723Q483.445 201.486 483.647 201.24Q483.85 200.994 484.042 200.741Q484.235 200.487 484.417 200.226Q484.6 199.964 484.771 199.696Q484.943 199.428 485.104 199.153Q485.264 198.878 485.414 198.596Q485.564 198.315 485.702 198.028Q485.84 197.741 485.967 197.449Q486.094 197.157 486.208 196.86Q486.323 196.563 486.426 196.261Q486.529 195.96 486.62 195.654L538.659 20.4246Q538.791 19.9816 538.896 19.5318Q539.002 19.082 539.081 18.6268Q539.16 18.1716 539.213 17.7126Q539.266 17.2535 539.292 16.7922Q539.318 16.3309 539.317 15.8689Q539.316 15.4068 539.288 14.9456Q539.261 14.4844 539.206 14.0255Q539.152 13.5667 539.071 13.1118Q538.99 12.6569 538.883 12.2075Q538.775 11.7581 538.642 11.3156Q538.509 10.8732 538.35 10.4392Q538.192 10.0053 538.008 9.58127Q537.825 9.15726 537.617 8.74463Q537.409 8.332 537.177 7.93215Q536.946 7.53229 536.691 7.14655Q536.437 6.76081 536.161 6.39049Q535.884 6.02018 535.587 5.66653Q535.29 5.31289 534.972 4.97712Q534.655 4.64134 534.318 4.32456Q533.982 4.00779 533.628 3.71108Q533.274 3.41437 532.903 3.13874Q532.532 2.8631 532.146 2.60947Q531.759 2.35584 531.359 2.12506Q530.959 1.89428 530.546 1.68714Q530.133 1.48 529.708 1.2972Q529.284 1.1144 528.85 0.956546Q528.416 0.798695 527.973 0.666331Q527.53 0.533966 527.081 0.427534Q526.631 0.321102 526.176 0.240963Q525.721 0.160823 525.262 0.107245Q524.803 0.0536679 524.342 0.026834Q523.881 0 523.419 0L154.606 0Q154.299 0 153.991 0.0118961Q153.684 0.0237922 153.377 0.0475666Q153.071 0.071341 152.765 0.106958Q152.46 0.142575 152.156 0.189982Q151.852 0.237388 151.55 0.296513Q151.248 0.355638 150.949 0.426393Q150.65 0.497148 150.353 0.579427Q150.057 0.661706 149.764 0.755386Q149.471 0.849066 149.182 0.954007Q148.893 1.05895 148.608 1.17499Q148.323 1.29104 148.043 1.41801Q147.763 1.54499 147.488 1.6827Q147.213 1.82042 146.943 1.96866Q146.674 2.11691 146.41 2.27547Q146.147 2.43403 145.889 2.60267Q145.632 2.77131 145.382 2.94976Q145.131 3.12822 144.888 3.31624Q144.644 3.50425 144.408 3.70154Q144.172 3.89882 143.944 4.10509Q143.716 4.31136 143.496 4.52629Q143.276 4.74123 143.065 4.96451Q142.853 5.1878 142.65 5.4191Q142.448 5.6504 142.254 5.88936Q142.06 6.12833 141.876 6.37461Q141.692 6.62089 141.517 6.87411Q141.343 7.12733 141.178 7.38711Q141.013 7.64689 140.859 7.91285Q140.704 8.1788 140.56 8.45054Q140.416 8.72227 140.283 8.99937Q140.149 9.27648 140.027 9.55853Q139.904 9.84059 139.792 10.1272Q139.681 10.4138 139.58 10.7045Z" fill="#6159E1" fill-rule="evenodd" transform="translate(338.735 396.791)" />
      <path d="M71.5472 10.587L7.51797 191.228Q7.35929 191.676 7.22762 192.132Q7.09595 192.589 6.99175 193.052Q6.88756 193.515 6.81121 193.984Q6.73486 194.453 6.68664 194.926Q6.63841 195.398 6.61848 195.873Q6.59855 196.347 6.60698 196.822Q6.61541 197.297 6.65218 197.77Q6.68895 198.244 6.75392 198.715Q6.81889 199.185 6.91183 199.651Q7.00478 200.117 7.12536 200.576Q7.24594 201.035 7.39373 201.487Q7.54153 201.938 7.716 202.38Q7.89048 202.822 8.09101 203.252Q8.29155 203.683 8.51743 204.101Q8.74331 204.518 8.99373 204.922Q9.24415 205.326 9.51822 205.714Q9.79229 206.101 10.089 206.472Q10.3858 206.843 10.7041 207.196Q11.0225 207.548 11.3613 207.881Q11.7001 208.214 12.0582 208.526Q12.4163 208.838 12.7923 209.128Q13.1684 209.418 13.5611 209.685Q13.9539 209.952 14.3618 210.196Q14.7698 210.439 15.1916 210.657Q15.6133 210.876 16.0474 211.069Q16.4814 211.261 16.9262 211.428Q17.371 211.595 17.8249 211.734Q18.2789 211.874 18.7404 211.987Q19.2018 212.099 19.6692 212.184Q20.1366 212.268 20.6081 212.325Q21.0797 212.382 21.5538 212.41Q22.028 212.438 22.5029 212.438L388.272 212.438Q388.583 212.438 388.895 212.426Q389.206 212.414 389.516 212.389Q389.827 212.365 390.136 212.329Q390.445 212.292 390.753 212.243Q391.061 212.195 391.366 212.134Q391.672 212.074 391.974 212.001Q392.277 211.929 392.577 211.844Q392.877 211.76 393.173 211.664Q393.47 211.568 393.762 211.46Q394.054 211.353 394.342 211.234Q394.63 211.115 394.913 210.985Q395.196 210.855 395.474 210.714Q395.751 210.573 396.023 210.421Q396.295 210.269 396.561 210.106Q396.827 209.944 397.086 209.771Q397.345 209.599 397.597 209.416Q397.849 209.233 398.094 209.041Q398.339 208.848 398.576 208.647Q398.814 208.445 399.043 208.234Q399.272 208.023 399.492 207.803Q399.713 207.583 399.925 207.355Q400.137 207.127 400.34 206.89Q400.542 206.654 400.736 206.41Q400.929 206.165 401.113 205.914Q401.296 205.662 401.47 205.404Q401.644 205.145 401.807 204.88Q401.97 204.615 402.123 204.343Q402.276 204.072 402.418 203.795Q402.56 203.518 402.692 203.235Q402.823 202.953 402.943 202.666Q403.063 202.378 403.171 202.086Q403.28 201.794 403.377 201.498L462.676 20.8571Q462.823 20.4113 462.942 19.9578Q463.062 19.5042 463.155 19.0443Q463.248 18.5844 463.313 18.1199Q463.379 17.6554 463.417 17.1878Q463.455 16.7202 463.466 16.2512Q463.476 15.7822 463.459 15.3133Q463.441 14.8445 463.397 14.3775Q463.352 13.9106 463.279 13.447Q463.207 12.9835 463.107 12.5251Q463.008 12.0666 462.881 11.6148Q462.755 11.163 462.602 10.7195Q462.449 10.2759 462.271 9.84217Q462.092 9.4084 461.888 8.98593Q461.684 8.56346 461.456 8.15375Q461.227 7.74404 460.975 7.34852Q460.722 6.953 460.447 6.57305Q460.172 6.19309 459.875 5.83002Q459.578 5.46696 459.26 5.12204Q458.942 4.77712 458.604 4.45155Q458.266 4.12598 457.91 3.8209Q457.554 3.51582 457.18 3.23228Q456.806 2.94874 456.416 2.68773Q456.026 2.42672 455.622 2.18916Q455.217 1.95159 454.799 1.73829Q454.382 1.52499 453.952 1.3367Q453.522 1.14841 453.082 0.985787Q452.642 0.823161 452.193 0.686766Q451.744 0.550371 451.288 0.440681Q450.832 0.33099 450.37 0.248387Q449.908 0.165784 449.443 0.110555Q448.977 0.0553254 448.508 0.0276627Q448.04 0 447.571 0L86.5321 0Q86.2265 0 85.9211 0.0117461Q85.6157 0.0234921 85.311 0.0469669Q85.0062 0.0704417 84.7026 0.105611Q84.399 0.140779 84.097 0.18759Q83.795 0.234401 83.495 0.292785Q83.195 0.351169 82.8975 0.421039Q82.5999 0.490909 82.3053 0.572163Q82.0107 0.653417 81.7194 0.745934Q81.4281 0.838451 81.1406 0.942095Q80.8531 1.04574 80.5698 1.16036Q80.2865 1.27497 80.0078 1.40039Q79.729 1.52582 79.4554 1.66186Q79.1817 1.7979 78.9134 1.94435Q78.6452 2.09081 78.3828 2.24747Q78.1204 2.40413 77.8642 2.57076Q77.6079 2.73739 77.3583 2.91374Q77.1087 3.09009 76.8661 3.27591Q76.6234 3.46172 76.3881 3.65673Q76.1528 3.85173 75.9251 4.05564Q75.6974 4.25954 75.4778 4.47204Q75.2581 4.68455 75.0468 4.90534Q74.8355 5.12613 74.6328 5.35487Q74.4301 5.58362 74.2364 5.81999Q74.0426 6.05636 73.8581 6.3Q73.6736 6.54364 73.4986 6.79419Q73.3236 7.04474 73.1583 7.30183Q72.993 7.55892 72.8378 7.82218Q72.6825 8.08543 72.5375 8.35446Q72.3925 8.62348 72.2579 8.89789Q72.1233 9.17229 71.9994 9.45166Q71.8755 9.73103 71.7624 10.015Q71.6493 10.2989 71.5472 10.5869L71.5472 10.587Z" fill="#00D3BB" fill-rule="evenodd" transform="translate(491.477 152.692)" />
    </g>
  </g>
</svg>